<svg xmlns="http://www.w3.org/2000/svg" xmlns:xlink="http://www.w3.org/1999/xlink" contentStyleType="text/css" data-diagram-type="CLASS" height="589px" preserveAspectRatio="none" style="width:300px;height:589px;background:#FFFFFF;" version="1.1" viewBox="0 0 300 589" width="300px" zoomAndPan="magnify"><defs/><g><!--class Organizer--><g class="entity" data-entity="Organizer" data-source-line="1" data-uid="ent0002" id="entity_Organizer"><rect fill="#F1F1F1" height="96.8906" rx="2.5" ry="2.5" style="stroke:#181818;stroke-width:0.5;" width="180.7793" x="28.24" y="7"/><ellipse cx="80.0188" cy="23" fill="#ADD1B2" rx="11" ry="11" style="stroke:#181818;stroke-width:1;"/><path d="M82.9876,28.6406 Q82.4094,28.9375 81.7688,29.0781 Q81.1282,29.2344 80.4251,29.2344 Q77.9251,29.2344 76.5969,27.5938 Q75.2844,25.9375 75.2844,22.8125 Q75.2844,19.6875 76.5969,18.0313 Q77.9251,16.375 80.4251,16.375 Q81.1282,16.375 81.7688,16.5313 Q82.4251,16.6875 82.9876,16.9844 L82.9876,19.7031 Q82.3626,19.125 81.7688,18.8594 Q81.1751,18.5781 80.5501,18.5781 Q79.2063,18.5781 78.5188,19.6563 Q77.8313,20.7188 77.8313,22.8125 Q77.8313,24.9063 78.5188,25.9844 Q79.2063,27.0469 80.5501,27.0469 Q81.1751,27.0469 81.7688,26.7813 Q82.3626,26.5 82.9876,25.9219 L82.9876,28.6406 Z " fill="#000000"/><text fill="#000000" font-family="sans-serif" font-size="14" lengthAdjust="spacing" textLength="68.7217" x="100.5188" y="27.8467">Organizer</text><line style="stroke:#181818;stroke-width:0.5;" x1="29.24" x2="208.0193" y1="39" y2="39"/><text fill="#000000" font-family="sans-serif" font-size="14" lengthAdjust="spacing" textLength="51.3516" x="34.24" y="55.9951">Long id</text><text fill="#000000" font-family="sans-serif" font-size="14" lengthAdjust="spacing" textLength="85.9346" x="34.24" y="72.292">String name</text><text fill="#000000" font-family="sans-serif" font-size="14" lengthAdjust="spacing" textLength="168.7793" x="34.24" y="88.5889">List&lt;Event&gt; ownEvents</text><line style="stroke:#181818;stroke-width:0.5;" x1="29.24" x2="208.0193" y1="95.8906" y2="95.8906"/></g><!--class Event--><g class="entity" data-entity="Event" data-source-line="7" data-uid="ent0003" id="entity_Event"><rect fill="#F1F1F1" height="210.9688" rx="2.5" ry="2.5" style="stroke:#181818;stroke-width:0.5;" width="223.2646" x="7" y="180.89"/><ellipse cx="94.3291" cy="196.89" fill="#ADD1B2" rx="11" ry="11" style="stroke:#181818;stroke-width:1;"/><path d="M97.2979,202.5306 Q96.7197,202.8275 96.0791,202.9681 Q95.4385,203.1244 94.7354,203.1244 Q92.2354,203.1244 90.9072,201.4837 Q89.5947,199.8275 89.5947,196.7025 Q89.5947,193.5775 90.9072,191.9212 Q92.2354,190.265 94.7354,190.265 Q95.4385,190.265 96.0791,190.4212 Q96.7354,190.5775 97.2979,190.8744 L97.2979,193.5931 Q96.6729,193.015 96.0791,192.7494 Q95.4854,192.4681 94.8604,192.4681 Q93.5166,192.4681 92.8291,193.5462 Q92.1416,194.6087 92.1416,196.7025 Q92.1416,198.7962 92.8291,199.8744 Q93.5166,200.9369 94.8604,200.9369 Q95.4854,200.9369 96.0791,200.6712 Q96.6729,200.39 97.2979,199.8119 L97.2979,202.5306 Z " fill="#000000"/><text fill="#000000" font-family="sans-serif" font-size="14" lengthAdjust="spacing" textLength="40.1064" x="114.8291" y="201.7367">Event</text><line style="stroke:#181818;stroke-width:0.5;" x1="8" x2="229.2646" y1="212.89" y2="212.89"/><text fill="#000000" font-family="sans-serif" font-size="14" lengthAdjust="spacing" textLength="51.3516" x="13" y="229.8851">Long id</text><text fill="#000000" font-family="sans-serif" font-size="14" lengthAdjust="spacing" textLength="108.1035" x="13" y="246.182">String category</text><text fill="#000000" font-family="sans-serif" font-size="14" lengthAdjust="spacing" textLength="73.6025" x="13" y="262.4789">String title</text><text fill="#000000" font-family="sans-serif" font-size="14" lengthAdjust="spacing" textLength="124.0723" x="13" y="278.7757">String description</text><text fill="#000000" font-family="sans-serif" font-size="14" lengthAdjust="spacing" textLength="101.7803" x="13" y="295.0726">String location</text><text fill="#000000" font-family="sans-serif" font-size="14" lengthAdjust="spacing" textLength="77.7998" x="13" y="311.3695">String date</text><text fill="#000000" font-family="sans-serif" font-size="14" lengthAdjust="spacing" textLength="77.8613" x="13" y="327.6664">String time</text><text fill="#000000" font-family="sans-serif" font-size="14" lengthAdjust="spacing" textLength="139.002" x="13" y="343.9632">Boolean petAllowed</text><text fill="#000000" font-family="sans-serif" font-size="14" lengthAdjust="spacing" textLength="139.4395" x="13" y="360.2601">Organizer organizer</text><text fill="#000000" font-family="sans-serif" font-size="14" lengthAdjust="spacing" textLength="211.2646" x="13" y="376.557">List&lt;Participant&gt; participants</text><line style="stroke:#181818;stroke-width:0.5;" x1="8" x2="229.2646" y1="383.8587" y2="383.8587"/></g><!--class Participant--><g class="entity" data-entity="Participant" data-source-line="20" data-uid="ent0004" id="entity_Participant"><rect fill="#F1F1F1" height="113.1875" rx="2.5" ry="2.5" style="stroke:#181818;stroke-width:0.5;" width="194.1709" x="21.55" y="468.86"/><ellipse cx="76.5998" cy="484.86" fill="#ADD1B2" rx="11" ry="11" style="stroke:#181818;stroke-width:1;"/><path d="M79.5686,490.5006 Q78.9904,490.7975 78.3498,490.9381 Q77.7092,491.0944 77.0061,491.0944 Q74.5061,491.0944 73.1779,489.4537 Q71.8654,487.7975 71.8654,484.6725 Q71.8654,481.5475 73.1779,479.8912 Q74.5061,478.235 77.0061,478.235 Q77.7092,478.235 78.3498,478.3912 Q79.0061,478.5475 79.5686,478.8444 L79.5686,481.5631 Q78.9436,480.985 78.3498,480.7194 Q77.7561,480.4381 77.1311,480.4381 Q75.7873,480.4381 75.0998,481.5162 Q74.4123,482.5787 74.4123,484.6725 Q74.4123,486.7662 75.0998,487.8444 Q75.7873,488.9069 77.1311,488.9069 Q77.7561,488.9069 78.3498,488.6412 Q78.9436,488.36 79.5686,487.7819 L79.5686,490.5006 Z " fill="#000000"/><text fill="#000000" font-family="sans-serif" font-size="14" lengthAdjust="spacing" textLength="75.5713" x="97.0998" y="489.7067">Participant</text><line style="stroke:#181818;stroke-width:0.5;" x1="22.55" x2="214.7209" y1="500.86" y2="500.86"/><text fill="#000000" font-family="sans-serif" font-size="14" lengthAdjust="spacing" textLength="51.3516" x="27.55" y="517.8551">Long id</text><text fill="#000000" font-family="sans-serif" font-size="14" lengthAdjust="spacing" textLength="85.9346" x="27.55" y="534.152">String name</text><text fill="#000000" font-family="sans-serif" font-size="14" lengthAdjust="spacing" textLength="83.2617" x="27.55" y="550.4489">String telNo</text><text fill="#000000" font-family="sans-serif" font-size="14" lengthAdjust="spacing" textLength="182.1709" x="27.55" y="566.7457">List&lt;Event&gt; eventHistory</text><line style="stroke:#181818;stroke-width:0.5;" x1="22.55" x2="214.7209" y1="574.0475" y2="574.0475"/></g><!--reverse link Organizer to Event--><g class="link" data-entity-1="Organizer" data-entity-2="Event" data-source-line="27" data-uid="lnk5" id="link_Organizer_Event"><path codeLine="27" d="M118.63,116.16 C118.63,138.44 118.63,153.9 118.63,180.65" fill="none" id="Organizer-backto-Event" style="stroke:#181818;stroke-width:1;"/><polygon fill="none" points="118.63,104.16,114.63,110.16,118.63,116.16,122.63,110.16,118.63,104.16" style="stroke:#181818;stroke-width:1;"/><text fill="#000000" font-family="sans-serif" font-size="13" lengthAdjust="spacing" textLength="145.0186" x="119.63" y="146.9569">organizer / ownEvents</text><text fill="#000000" font-family="sans-serif" font-size="13" lengthAdjust="spacing" textLength="8.271" x="110.1108" y="123.7897">1</text><text fill="#000000" font-family="sans-serif" font-size="13" lengthAdjust="spacing" textLength="6.5" x="112.4365" y="169.7605">*</text></g><!--reverse link Event to Participant--><g class="link" data-entity-1="Event" data-entity-2="Participant" data-source-line="28" data-uid="lnk6" id="link_Event_Participant"><path codeLine="28" d="M118.63,404.05 C118.63,430.35 118.63,445.57 118.63,468.44" fill="none" id="Event-backto-Participant" style="stroke:#181818;stroke-width:1;"/><polygon fill="none" points="118.63,392.05,114.63,398.05,118.63,404.05,122.63,398.05,118.63,392.05" style="stroke:#181818;stroke-width:1;"/><text fill="#000000" font-family="sans-serif" font-size="13" lengthAdjust="spacing" textLength="173.2783" x="119.63" y="434.9269">participants / eventHistory</text><text fill="#000000" font-family="sans-serif" font-size="13" lengthAdjust="spacing" textLength="6.5" x="112.4365" y="412.0792">*</text><text fill="#000000" font-family="sans-serif" font-size="13" lengthAdjust="spacing" textLength="6.5" x="112.2942" y="457.6524">*</text></g><!--SRC=[VL3H2i8m37pVLuGz2aDy7I8e23w82dv1wS88r6QqmQ7YlzjEHpiHdvfSaylTQQEyXwDhbQKxEdWK07ksBL0JghCu2hLL5umuULbkhsXb1TpReVB5ioZqG3Bqlmcq4cpPtH8Y90PJsw3NZZeXjWaq7FOcI1DuSev1reRPeBBGeQoDuHxZuUI8nsfqS59EI5EdeeykDPcLREHl8gCGD0V-2WZZimj0j1s8aw1oKG9N5PIpyfDPdKJ2F8ls_HldnlbSM3qH7nRpaoy0]--></g></svg>